HIERARCHY
ROOT Hips
{
  OFFSET 265.287 66.7526 -254.649
  CHANNELS 6 Xposition Yposition Zposition Zrotation Xrotation Yrotation
  JOINT LeftUpLeg
  {
    OFFSET 8.64259 1.95398 -2.38835
    CHANNELS 3 Zrotation Xrotation Yrotation
    JOINT LeftLeg
    {
      OFFSET 43.7702 0 0
      CHANNELS 3 Zrotation Xrotation Yrotation
      JOINT LeftFoot
      {
        OFFSET 40.6238 0 0
        CHANNELS 3 Zrotation Xrotation Yrotation
        JOINT LeftToeBase
        {
          OFFSET 12.7242 0 0
          CHANNELS 3 Zrotation Xrotation Yrotation
          End Site
          {
            OFFSET 0 0 0
          }
        }
      }
    }
  }
  JOINT RightUpLeg
  {
    OFFSET -8.2249 1.95398 -2.59336
    CHANNELS 3 Zrotation Xrotation Yrotation
    JOINT RightLeg
    {
      OFFSET 43.5653 0 0
      CHANNELS 3 Zrotation Xrotation Yrotation
      JOINT RightFoot
      {
        OFFSET 40.6238 0 0
        CHANNELS 3 Zrotation Xrotation Yrotation
        JOINT RightToeBase
        {
          OFFSET 12.7242 0 0
          CHANNELS 3 Zrotation Xrotation Yrotation
          End Site
          {
            OFFSET 0 0 0
          }
        }
      }
    }
  }
  JOINT Spine
  {
    OFFSET 0.165834 0.87714 6.61349
    CHANNELS 3 Zrotation Xrotation Yrotation
    JOINT Spine1
    {
      OFFSET 7.38963 1.71661e-005 0
      CHANNELS 3 Zrotation Xrotation Yrotation
      JOINT Spine2
      {
        OFFSET 11.9445 1.14441e-005 0
        CHANNELS 3 Zrotation Xrotation Yrotation
        JOINT Spine3
        {
          OFFSET 14.7254 4.19617e-005 0
          CHANNELS 3 Zrotation Xrotation Yrotation
          JOINT Spine4
          {
            OFFSET 10.9679 0 0
            CHANNELS 3 Zrotation Xrotation Yrotation
            JOINT RightShoulder
            {
              OFFSET 2.46616 -1.6653 3.69651
              CHANNELS 3 Zrotation Xrotation Yrotation
              JOINT RightArm
              {
                OFFSET 13.0012 0 0
                CHANNELS 3 Zrotation Xrotation Yrotation
                JOINT RightForeArm
                {
                  OFFSET 28.7848 1.52588e-005 0
                  CHANNELS 3 Zrotation Xrotation Yrotation
                  JOINT RightHand
                  {
                    OFFSET 26.5688 1.52588e-005 0
                    CHANNELS 3 Zrotation Xrotation Yrotation
                    End Site
                    {
                      OFFSET 0 0 0
                    }
                  }
                }
              }
            }
            JOINT LeftShoulder
            {
              OFFSET 2.38034 -1.29275 -3.7523
              CHANNELS 3 Zrotation Xrotation Yrotation
              JOINT LeftArm
              {
                OFFSET 16.3182 6.10351e-005 0
                CHANNELS 3 Zrotation Xrotation Yrotation
                JOINT LeftForeArm
                {
                  OFFSET 27.0901 0 0
                  CHANNELS 3 Zrotation Xrotation Yrotation
                  JOINT LeftHand
                  {
                    OFFSET 24.5451 1.52588e-005 0
                    CHANNELS 3 Zrotation Xrotation Yrotation
                    End Site
                    {
                      OFFSET 0 0 0
                    }
                  }
                }
              }
            }
            JOINT Neck
            {
              OFFSET 5.0226 -0.0266342 0
              CHANNELS 3 Zrotation Xrotation Yrotation
              JOINT Head
              {
                OFFSET 6.69364 2.86102e-005 0
                CHANNELS 3 Zrotation Xrotation Yrotation
                End Site
                {
                  OFFSET 0 0 0
                }
              }
            }
          }
        }
      }
    }
  }
}
MOTION
Frames:	9
Frame Time:	0.0416667
46.4248 73.981 -13.7228 -126.345 -53.4103 -135.137 177.496 27.2388 100.473 -47.1026 24.5623 7.95535 43.4195 -4.85571 -6.22479 64.7105 -8.28343 12.7213 173.156 37.0669 94.729 -91.5341 -17.1072 -2.406 60.244 -2.76791 -5.21019 44.2642 -2.10706 5.39679 -0.0938932 10.5584 -88.6479 5.74505 0.378032 2.64761 -5.9285 0.494145 2.62843 -28.4423 -0.434892 2.63888 -8.42966 -0.434885 2.63888 100.488 -49.1278 -84.8085 25.4005 -14.5905 -5.40808 2.35191 3.16647 -52.9021 -16.2117 -0.356184 -2.68958 -86.8898 -44.2968 82.1921 2.2069 6.23947 -16.5685 -1.65071 -7.41234 -13.2447 10.697 -0.393798 -7.01695 -3.48713 -15.663 0.256667 1.32249 -16.421 -21.5565 
47.9999 72.1217 -4.50678 -112.847 -49.107 -123.572 179.883 33.4952 100.416 -64.1612 22.274 4.67399 56.2683 -0.101942 7.72261 59.9574 -7.82776 10.0547 173.215 46.2808 92.5712 -101.35 -15.3998 -3.32002 54.8848 0.479411 -2.03746 40.8168 -1.81229 14.068 -0.0396482 10.7351 -88.5021 5.38707 0.542652 2.92822 -6.287 0.670966 2.90153 -28.7957 -0.362072 2.95596 -8.7831 -0.36207 2.95596 100.481 -47.1419 -84.8865 24.5176 -16.0229 -9.89398 -11.7965 -1.55973e-005 -89.9999 -18.4382 0.0758635 -5.75349 -88.0337 -45.2788 80.5538 2.797 1.05127 -24.1861 -0.475386 -8.57553 -11.2848 12.5024 -0.465788 -7.25705 4.52773 -15.5725 1.98437 1.44542 -16.5595 -22.0443 
47.9538 72.4398 1.62723 -104.657 -51.4239 -117.838 -178.135 37.6531 98.3856 -68.7699 23.387 2.83592 62.6502 3.38781 10.6774 59.8893 -7.75175 10.346 161.503 55.8012 96.8671 -97.0963 -15.6876 -1.68644 58.2787 0.516611 5.58733 42.4166 -1.83433 12.6548 -0.424098 11.1576 -88.5554 4.55301 -0.257943 2.8357 -7.121 -0.132947 2.84428 -29.6344 -1.09798 2.62734 -9.62174 -1.09798 2.62733 99.9193 -48.9476 -85.7102 24.6357 -14.7235 -12.8064 -17.0512 8.78542 -105.957 -22.0536 0.030393 -5.41963 -91.2117 -46.6657 75.8791 2.01713 -6.77302 -45.9766 2.25261 -4.23124 -7.84165 13.2359 -0.444834 -6.95601 15.0927 -15.6004 3.96613 1.31857 -17.102 -22.5605 
45.1727 75.5139 6.79354 -98.2684 -55.1528 -115.161 -175.851 35.0662 94.2818 -62.9647 24.337 1.7932 66.047 5.17881 10.7578 59.1183 -7.53328 10.6878 148.828 57.7172 101.985 -85.0004 -11.319 2.11875 66.1901 -3.44328 3.90107 42.9648 -1.88319 13.8184 -1.01185 11.3357 -88.5849 4.2112 -1.44835 2.7806 -7.4621 -1.32464 2.84158 -29.9869 -2.2169 2.21712 -9.97423 -2.21689 2.21714 100.126 -52.0774 -85.2684 23.4727 -18.8738 -11.1026 -21.4106 7.74594 -93.8915 -22.3182 -0.18012 -4.24179 -93.0519 -44.0586 72.2703 -5.64135 -7.96302 -65.5671 4.58113 -2.59456 -14.1622 12.4114 -0.483926 -7.41126 22.0033 -15.8356 5.51141 -0.203934 -17.6207 -21.8079 
39.0199 78.9819 12.8168 -89.9246 -53.2302 -109.089 -174.058 27.5212 94.9072 -54.2902 24.271 1.7187 67.3925 4.74766 5.90311 60.8688 -7.7369 11.6052 149.334 54.8422 102.577 -77.347 -12.6297 4.3586 62.023 -2.34527 -2.30698 45.1159 -1.89142 15.1171 -1.3576 10.9479 -88.6996 4.99493 -2.17719 2.58809 -6.67695 -2.06121 2.68134 -29.2152 -2.85423 1.81419 -9.20251 -2.85422 1.81419 98.9142 -53.1285 -87.0445 24.0694 -24.2275 -5.55891 -16.8411 -1.41473 -78.1385 -29.6577 -0.790873 -2.14277 -91.6194 -41.3453 73.7997 -3.40988 -5.06308 -69.4943 6.77559 1.41391 -31.2399 14.7357 -0.811951 -9.16342 22.9711 -14.1803 9.05679 -1.41902 -17.0119 -21.8726 
30.4579 81.0004 19.9975 -83.5529 -45.5124 -103.775 -179.094 24.0262 96.8282 -57.5208 18.4318 4.32871 53.7096 -2.0575 -6.9583 69.3923 -8.98134 13.2344 159.352 45.4473 97.5591 -72.0751 -10.1867 4.38463 53.6425 4.50358 10.3841 29.418 -0.99663 7.87238 -1.04001 10.3555 -89.1045 6.17504 -1.69979 1.81871 -5.49613 -1.61812 1.89173 -28.0353 -2.16776 1.22375 -8.02262 -2.16778 1.22375 97.2202 -53.2698 -89.5695 26.6236 -21.7438 2.87887 -8.6216 -2.91707 -65.425 -25.8549 -0.708555 -2.03064 -90.6931 -43.1845 75.8125 -2.47973 -0.139 -55.6078 7.8631 -0.106144 -43.7397 10.2837 -0.648345 -9.41065 19.6073 -11.915 8.79963 0.0321745 -14.7162 -17.6688 
20.7779 82.1622 26.1388 -80.5528 -37.0705 -100.737 170.541 29.7423 96.5363 -77.8493 12.2577 5.00796 51.4826 -0.57729 11.7575 54.724 -7.1226 7.14942 165.224 31.7597 96.1355 -64.9099 -15.0248 5.655 64.9851 -0.603821 8.02559 29.0841 -1.09123 9.71463 -0.593269 10.1292 -89.6265 6.61686 -1.02573 0.772369 -5.05398 -0.990756 0.816756 -27.5911 -1.21041 0.428389 -7.57848 -1.21042 0.428388 96.7506 -53.589 -90.2413 24.4527 -17.4842 0.657014 -0.535857 -0.825696 -54.5479 -24.6902 -0.306802 -3.94721 -89.4792 -47.9823 78.8389 -1.24099 5.87454 -35.7908 5.72425 1.19188 -33.2027 10.2989 -0.637036 -9.35594 22.2591 -9.4215 6.29223 -2.85191 -11.1729 -11.5282 
12.5081 82.1917 31.7807 -76.0599 -18.864 -96.0831 170.42 44.3027 97.3825 -96.2077 8.01815 2.35128 62.8589 6.48064 19.4673 48.0817 -5.5066 6.32832 173.742 25.2326 97.6693 -61.9632 -19.871 1.84287 60.6745 2.36226 12.2487 31.4283 -1.55918 13.1059 0.499015 10.0423 -89.8789 6.78377 1.0483 0.199578 -4.88686 1.05603 0.153236 -27.4237 0.939858 0.505428 -7.411 0.939837 0.505418 97.2047 -51.0263 -89.8019 23.401 -14.182 -12.5114 -2.87826 -0.710981 -59.6466 -19.1048 -0.190992 -3.99228 -86.7081 -55.3795 84.226 -0.380794 13.4126 -10.1941 1.43051 4.41636 -20.8016 13.1948 -0.210993 -5.25157 25.0407 -5.31418 8.41871 -2.89502 -8.11952 -9.12323 
2.04405 83.858 36.5713 -71.3072 -7.67698 -100.256 -175.844 59.943 85.208 -87.9946 22.3608 0.447831 64.2031 5.22746 16.449 56.2351 -7.43079 7.12146 177.252 14.1852 89.3033 -49.544 -25.6171 -2.35026 65.7245 -0.0904428 12.3649 27.7817 -1.8771 16.5559 0.991496 9.65719 -89.2147 7.54295 2.32024 1.43359 -4.1266 2.3811 1.33006 -26.6662 1.7822 2.06463 -6.65359 1.78221 2.06464 98.8734 -43.817 -87.7158 24.4945 -7.46635 -27.6103 -7.64339 1.37647 -82.5946 -15.2475 0.142928 -6.41762 -85.6994 -52.239 85.266 -18.3128 14.9017 19.655 0.475041 2.51299 -20.6365 11.083 -0.26434 -5.84323 23.7026 -4.26811 5.37819 -2.9955 -5.95531 -3.74165 
